<svg width="1200" height="640" viewBox="0 0 1200 640" xmlns="http://www.w3.org/2000/svg"><mask id="satori_om-id"><rect x="0" y="0" width="1200" height="640" fill="#fff"/></mask><rect x="0" y="0" width="1200" height="640" fill="#fff"/><clipPath id="satori_cp-id-0"><rect x="500" y="181" width="200" height="200"/></clipPath><mask id="satori_om-id-0"><rect x="500" y="181" width="200" height="200" fill="#fff"/></mask><image x="500" y="181" width="200" height="200" href="data:image/svg+xml;utf8,%3Csvg  fill=%22%23000000%22 version=%221.1%22 xmlns=%22http://www.w3.org/2000/svg%22 xlink=%22http://www.w3.org/1999/xlink%22 enable-background=%22new 0 0 485.32 485.32%22 width=%22NaN%22 height=%22NaN%22 viewBox=%220 0 485.32 485.32%22%3E%3Cg id=%22SVGRepo_bgCarrier%22 stroke-width=%220%22%3E%3C/g%3E%3Cg id=%22SVGRepo_tracerCarrier%22 stroke-linecap=%22round%22 stroke-linejoin=%22round%22%3E%3C/g%3E%3Cg id=%22SVGRepo_iconCarrier%22%3E %3Cg%3E %3Cpath d=%22m480.76,79.05c-0.6-0.2-235-78.3-235-78.3-2.1-1-4.1-1-6.2,0l-231.9,76.3c-5.8,2.4-7.2,7.4-7.2,10.3v313.3c0,5.2 3.1,9.3 7.2,10.3l229,73.2c3.5,1.3 7.3,1.8 12.1,0l228.9-73.2c4.1-2.1 7.2-6.2 7.2-10.3v-313.3c5.68434e-14-3.1-1-6.2-4.1-8.3zm-238.1-56.7l198.9,63.9-75.1,24.1-196-64.5 72.2-23.5zm-10.3,438l-211.3-67v-291.4l211.3,67.6v290.8zm10.3-310.2l-198.9-62.8 93.7-30.6 195.3,64.5-90.1,28.9zm10.3,310.2v-291.6l105.1-33.3v32.3l20.6-8.8v-30l85.5-27v290.4h0.1l-211.3,68z%22%3E%3C/path%3E %3C/g%3E %3C/g%3E%3C/svg%3E" preserveAspectRatio="none" clip-path="url(#satori_cp-id-0)" mask="url(#satori_om-id-0)"/><mask id="satori_om-id-0-0"><rect x="500" y="181" width="0" height="200" fill="#fff"/></mask><mask id="satori_om-id-0-1"><rect x="500" y="181" width="0" height="200" fill="#fff"/></mask><mask id="satori_om-id-0-2"><rect x="500" y="181" width="0" height="200" fill="#fff"/></mask><mask id="satori_om-id-0-2-1"><rect x="500" y="181" width="0" height="200" fill="#fff"/></mask><mask id="satori_om-id-0-2-1-1"><rect x="500" y="181" width="0" height="200" fill="#fff"/></mask><mask id="satori_om-id-1"><rect x="427" y="421" width="347" height="38" fill="#fff"/></mask><path fill="black" d="M443.6 428.7L448.5 428.7L448.5 452L444.2 452L434.1 437.4L433.9 437.4L433.9 452L429.0 452L429.0 428.7L433.3 428.7L443.4 443.4L443.6 443.4L443.6 428.7ZM460.4 452.3L460.4 452.3Q457.7 452.3 455.8 451.2Q453.8 450.1 452.8 448.1Q451.8 446.1 451.8 443.4L451.8 443.4Q451.8 440.7 452.8 438.6Q453.8 436.6 455.7 435.5Q457.6 434.3 460.2 434.3L460.2 434.3Q461.9 434.3 463.4 434.9Q464.9 435.4 466.1 436.5Q467.2 437.6 467.8 439.3Q468.4 441.0 468.4 443.2L468.4 443.2L468.4 444.5L453.7 444.5L453.7 441.5L463.9 441.5Q463.9 440.5 463.4 439.7Q463.0 438.9 462.2 438.4Q461.4 437.9 460.3 437.9L460.3 437.9Q459.2 437.9 458.3 438.4Q457.5 438.9 457.0 439.8Q456.5 440.6 456.5 441.7L456.5 441.7L456.5 444.5Q456.5 445.8 457.0 446.8Q457.5 447.7 458.4 448.2Q459.3 448.7 460.5 448.7L460.5 448.7Q461.3 448.7 462.0 448.5Q462.6 448.3 463.1 447.8Q463.6 447.4 463.8 446.7L463.8 446.7L468.3 447Q468.0 448.6 466.9 449.8Q465.9 451.0 464.2 451.7Q462.6 452.3 460.4 452.3ZM470.3 434.5L475.3 434.5L478.5 440.6L481.8 434.5L486.8 434.5L481.7 443.3L486.9 452L482.0 452L478.5 446.0L475.1 452L470.1 452L475.3 443.3L470.3 434.5ZM488.4 434.5L498.9 434.5L498.9 438.2L488.4 438.2L488.4 434.5ZM490.8 447.3L490.8 430.4L495.6 430.4L495.6 446.6Q495.6 447.3 495.9 447.7Q496.1 448.0 496.4 448.2Q496.8 448.3 497.3 448.3L497.3 448.3Q497.6 448.3 498.0 448.3Q498.3 448.2 498.5 448.2L498.5 448.2L499.3 451.8Q498.9 451.9 498.2 452.1Q497.6 452.2 496.6 452.2L496.6 452.2Q494.9 452.3 493.6 451.8Q492.3 451.2 491.5 450.1Q490.8 449.0 490.8 447.3L490.8 447.3Z M527.2 435.4L522.5 435.4Q522.4 434.0 521.3 433.3Q520.3 432.5 518.5 432.5L518.5 432.5Q517.3 432.5 516.5 432.9Q515.7 433.2 515.2 433.8Q514.8 434.4 514.8 435.1L514.8 435.1Q514.8 435.8 515.1 436.2Q515.4 436.7 515.9 437.0Q516.4 437.4 517.0 437.6Q517.7 437.8 518.5 438.0L518.5 438.0L520.6 438.5Q522.1 438.9 523.4 439.4Q524.6 440.0 525.6 440.8Q526.5 441.6 527.0 442.8Q527.5 443.9 527.5 445.4L527.5 445.4Q527.5 447.5 526.5 449.1Q525.4 450.6 523.4 451.5Q521.4 452.3 518.5 452.3L518.5 452.3Q515.7 452.3 513.6 451.5Q511.5 450.6 510.4 448.9Q509.2 447.2 509.1 444.7L509.1 444.7L513.9 444.7Q514.0 445.9 514.6 446.6Q515.2 447.4 516.2 447.8Q517.2 448.2 518.5 448.2L518.5 448.2Q519.7 448.2 520.6 447.8Q521.6 447.5 522.1 446.8Q522.6 446.2 522.6 445.3L522.6 445.3Q522.6 444.6 522.1 444.0Q521.7 443.5 520.8 443.1Q519.9 442.7 518.6 442.4L518.6 442.4L516.1 441.8Q513.1 441.1 511.4 439.6Q509.7 438.0 509.8 435.5L509.8 435.5Q509.7 433.3 510.9 431.8Q512.0 430.2 514.0 429.3Q516.0 428.4 518.6 428.4L518.6 428.4Q521.2 428.4 523.1 429.3Q525.0 430.2 526.1 431.8Q527.2 433.3 527.2 435.4L527.2 435.4ZM529.5 434.5L540.0 434.5L540.0 438.2L529.5 438.2L529.5 434.5ZM531.9 447.3L531.9 430.4L536.8 430.4L536.8 446.6Q536.8 447.3 537.0 447.7Q537.2 448.0 537.5 448.2Q537.9 448.3 538.4 448.3L538.4 448.3Q538.7 448.3 539.1 448.3Q539.4 448.2 539.6 448.2L539.6 448.2L540.4 451.8Q540.0 451.9 539.3 452.1Q538.7 452.2 537.7 452.2L537.7 452.2Q536.0 452.3 534.7 451.8Q533.4 451.2 532.6 450.1Q531.9 449.0 531.9 447.3L531.9 447.3ZM548.2 452.3L548.2 452.3Q546.5 452.3 545.2 451.7Q543.9 451.2 543.1 450.0Q542.4 448.9 542.4 447.1L542.4 447.1Q542.4 445.7 542.9 444.7Q543.4 443.7 544.4 443.1Q545.3 442.5 546.4 442.2Q547.6 441.9 548.9 441.8L548.9 441.8Q550.4 441.6 551.4 441.4Q552.3 441.3 552.7 441.0Q553.1 440.7 553.1 440.2L553.1 440.2L553.1 440.1Q553.1 439.0 552.5 438.4Q551.8 437.9 550.6 437.9L550.6 437.9Q549.3 437.9 548.5 438.4Q547.7 439 547.5 439.9L547.5 439.9L543.0 439.5Q543.3 437.9 544.3 436.7Q545.3 435.6 546.9 434.9Q548.5 434.3 550.6 434.3L550.6 434.3Q552.0 434.3 553.4 434.7Q554.7 435 555.7 435.7Q556.8 436.4 557.4 437.6Q558.0 438.7 558.0 440.2L558.0 440.2L558.0 452L553.4 452L553.4 449.6L553.3 449.6Q552.8 450.4 552.1 451.0Q551.4 451.6 550.4 452.0Q549.5 452.3 548.2 452.3ZM549.5 449.0L549.5 449.0Q550.6 449.0 551.4 448.6Q552.3 448.1 552.7 447.4Q553.2 446.7 553.2 445.8L553.2 445.8L553.2 443.9Q553.0 444.1 552.6 444.2Q552.2 444.3 551.7 444.4Q551.2 444.5 550.7 444.6Q550.2 444.6 549.8 444.7L549.8 444.7Q549.0 444.8 548.3 445.1Q547.7 445.4 547.3 445.8Q547.0 446.3 547.0 447.0L547.0 447.0Q547.0 448.0 547.7 448.5Q548.4 449.0 549.5 449.0ZM566.6 452L561.8 452L561.8 434.5L566.4 434.5L566.4 437.6L566.6 437.6Q567.1 436.0 568.2 435.1Q569.4 434.3 570.8 434.3L570.8 434.3Q571.2 434.3 571.6 434.3Q572.0 434.4 572.3 434.5L572.3 434.5L572.3 438.8Q572 438.7 571.4 438.6Q570.8 438.5 570.3 438.5L570.3 438.5Q569.2 438.5 568.4 439.0Q567.6 439.4 567.1 440.2Q566.6 441.1 566.6 442.1L566.6 442.1L566.6 452ZM574.5 434.5L585.0 434.5L585.0 438.2L574.5 438.2L574.5 434.5ZM576.9 447.3L576.9 430.4L581.7 430.4L581.7 446.6Q581.7 447.3 581.9 447.7Q582.1 448.0 582.5 448.2Q582.9 448.3 583.3 448.3L583.3 448.3Q583.7 448.3 584.0 448.3Q584.4 448.2 584.5 448.2L584.5 448.2L585.3 451.8Q584.9 451.9 584.3 452.1Q583.6 452.2 582.7 452.2L582.7 452.2Q580.9 452.3 579.6 451.8Q578.3 451.2 577.6 450.1Q576.9 449.0 576.9 447.3L576.9 447.3ZM595.9 452.3L595.9 452.3Q593.2 452.3 591.3 451.2Q589.3 450.1 588.3 448.1Q587.3 446.1 587.3 443.4L587.3 443.4Q587.3 440.7 588.3 438.6Q589.3 436.6 591.2 435.5Q593.1 434.3 595.7 434.3L595.7 434.3Q597.4 434.3 598.9 434.9Q600.4 435.4 601.6 436.5Q602.7 437.6 603.3 439.3Q603.9 441.0 603.9 443.2L603.9 443.2L603.9 444.5L589.2 444.5L589.2 441.5L599.4 441.5Q599.4 440.5 598.9 439.7Q598.5 438.9 597.7 438.4Q596.9 437.9 595.8 437.9L595.8 437.9Q594.7 437.9 593.8 438.4Q593.0 438.9 592.5 439.8Q592.0 440.6 592.0 441.7L592.0 441.7L592.0 444.5Q592.0 445.8 592.5 446.8Q593.0 447.7 593.9 448.2Q594.8 448.7 596.0 448.7L596.0 448.7Q596.8 448.7 597.5 448.5Q598.1 448.3 598.6 447.8Q599.1 447.4 599.3 446.7L599.3 446.7L603.8 447Q603.5 448.6 602.4 449.8Q601.4 451.0 599.7 451.7Q598.1 452.3 595.9 452.3ZM611.9 452L607.1 452L607.1 434.5L611.8 434.5L611.8 437.6L612.0 437.6Q612.4 436.0 613.6 435.1Q614.7 434.3 616.1 434.3L616.1 434.3Q616.5 434.3 616.9 434.3Q617.4 434.4 617.7 434.5L617.7 434.5L617.7 438.8Q617.3 438.7 616.7 438.6Q616.1 438.5 615.6 438.5L615.6 438.5Q614.6 438.5 613.7 439.0Q612.9 439.4 612.4 440.2Q611.9 441.1 611.9 442.1L611.9 442.1L611.9 452Z M633.2 432.8L626.1 432.8L626.1 428.7L645.2 428.7L645.2 432.8L638.1 432.8L638.1 452L633.2 452L633.2 432.8ZM653.7 452.3L653.7 452.3Q651.0 452.3 649.1 451.2Q647.1 450.1 646.1 448.1Q645.0 446.1 645.0 443.4L645.0 443.4Q645.0 440.7 646.1 438.6Q647.1 436.6 649.0 435.5Q650.9 434.3 653.5 434.3L653.5 434.3Q655.2 434.3 656.7 434.9Q658.2 435.4 659.3 436.5Q660.4 437.6 661.1 439.3Q661.7 441.0 661.7 443.2L661.7 443.2L661.7 444.5L647.0 444.5L647.0 441.5L657.1 441.5Q657.1 440.5 656.7 439.7Q656.2 438.9 655.4 438.4Q654.6 437.9 653.6 437.9L653.6 437.9Q652.5 437.9 651.6 438.4Q650.8 438.9 650.3 439.8Q649.8 440.6 649.8 441.7L649.8 441.7L649.8 444.5Q649.8 445.8 650.3 446.8Q650.8 447.7 651.7 448.2Q652.5 448.7 653.8 448.7L653.8 448.7Q654.6 448.7 655.2 448.5Q655.9 448.3 656.4 447.8Q656.9 447.4 657.1 446.7L657.1 446.7L661.6 447Q661.3 448.6 660.2 449.8Q659.1 451.0 657.5 451.7Q655.8 452.3 653.7 452.3ZM669.7 452L664.9 452L664.9 434.5L669.5 434.5L669.5 437.6L669.7 437.6Q670.2 436.1 671.5 435.2Q672.8 434.3 674.5 434.3L674.5 434.3Q676.3 434.3 677.6 435.2Q678.9 436.1 679.3 437.6L679.3 437.6L679.5 437.6Q680.0 436.1 681.4 435.2Q682.8 434.3 684.7 434.3L684.7 434.3Q687.2 434.3 688.7 435.9Q690.2 437.4 690.2 440.3L690.2 440.3L690.2 452L685.4 452L685.4 441.2Q685.4 439.8 684.6 439.0Q683.8 438.3 682.7 438.3L682.7 438.3Q681.4 438.3 680.6 439.1Q679.9 440.0 679.9 441.3L679.9 441.3L679.9 452L675.2 452L675.2 441.1Q675.2 439.8 674.5 439.1Q673.7 438.3 672.5 438.3L672.5 438.3Q671.7 438.3 671.1 438.7Q670.4 439.1 670.1 439.8Q669.7 440.6 669.7 441.5L669.7 441.5L669.7 452ZM698.9 458.5L694.0 458.5L694.0 434.5L698.8 434.5L698.8 437.5L699.0 437.5Q699.3 436.8 699.9 436.0Q700.6 435.3 701.5 434.8Q702.5 434.3 704.0 434.3L704.0 434.3Q705.9 434.3 707.5 435.3Q709.1 436.3 710.1 438.3Q711.1 440.3 711.1 443.3L711.1 443.3Q711.1 446.2 710.1 448.2Q709.2 450.2 707.6 451.3Q706.0 452.3 704.0 452.3L704.0 452.3Q702.6 452.3 701.6 451.8Q700.6 451.4 700.0 450.6Q699.4 449.9 699.0 449.2L699.0 449.2L698.9 449.2L698.9 458.5ZM698.8 443.3L698.8 443.3Q698.8 444.8 699.2 446.0Q699.6 447.1 700.5 447.8Q701.3 448.4 702.4 448.4L702.4 448.4Q703.6 448.4 704.4 447.8Q705.3 447.1 705.7 446.0Q706.1 444.8 706.1 443.3L706.1 443.3Q706.1 441.8 705.7 440.6Q705.3 439.5 704.5 438.8Q703.6 438.2 702.4 438.2L702.4 438.2Q701.3 438.2 700.4 438.8Q699.6 439.4 699.2 440.6Q698.8 441.7 698.8 443.3ZM714.3 428.7L719.1 428.7L719.1 452L714.3 452L714.3 428.7ZM728.0 452.3L728.0 452.3Q726.3 452.3 725.0 451.7Q723.7 451.2 722.9 450.0Q722.2 448.9 722.2 447.1L722.2 447.1Q722.2 445.7 722.7 444.7Q723.2 443.7 724.1 443.1Q725.1 442.5 726.2 442.2Q727.4 441.9 728.7 441.8L728.7 441.8Q730.2 441.6 731.2 441.4Q732.1 441.3 732.5 441.0Q732.9 440.7 732.9 440.2L732.9 440.2L732.9 440.1Q732.9 439.0 732.3 438.4Q731.6 437.9 730.4 437.9L730.4 437.9Q729.0 437.9 728.3 438.4Q727.5 439 727.3 439.9L727.3 439.9L722.8 439.5Q723.1 437.9 724.1 436.7Q725.1 435.6 726.7 434.9Q728.3 434.3 730.4 434.3L730.4 434.3Q731.8 434.3 733.2 434.7Q734.5 435 735.5 435.7Q736.6 436.4 737.2 437.6Q737.8 438.7 737.8 440.2L737.8 440.2L737.8 452L733.2 452L733.2 449.6L733.1 449.6Q732.6 450.4 731.9 451.0Q731.2 451.6 730.2 452.0Q729.3 452.3 728.0 452.3ZM729.3 449.0L729.3 449.0Q730.4 449.0 731.2 448.6Q732.0 448.1 732.5 447.4Q733.0 446.7 733.0 445.8L733.0 445.8L733.0 443.9Q732.8 444.1 732.4 444.2Q732.0 444.3 731.5 444.4Q731.0 444.5 730.5 444.6Q730.0 444.6 729.6 444.7L729.6 444.7Q728.8 444.8 728.1 445.1Q727.5 445.4 727.1 445.8Q726.8 446.3 726.8 447.0L726.8 447.0Q726.8 448.0 727.5 448.5Q728.2 449.0 729.3 449.0ZM740.3 434.5L750.8 434.5L750.8 438.2L740.3 438.2L740.3 434.5ZM742.7 447.3L742.7 430.4L747.5 430.4L747.5 446.6Q747.5 447.3 747.8 447.7Q748.0 448.0 748.3 448.2Q748.7 448.3 749.2 448.3L749.2 448.3Q749.5 448.3 749.9 448.3Q750.2 448.2 750.4 448.2L750.4 448.2L751.1 451.8Q750.8 451.9 750.1 452.1Q749.5 452.2 748.5 452.2L748.5 452.2Q746.8 452.3 745.5 451.8Q744.1 451.2 743.4 450.1Q742.7 449.0 742.7 447.3L742.7 447.3ZM761.8 452.3L761.8 452.3Q759.1 452.3 757.1 451.2Q755.2 450.1 754.1 448.1Q753.1 446.1 753.1 443.4L753.1 443.4Q753.1 440.7 754.1 438.6Q755.2 436.6 757.1 435.5Q759.0 434.3 761.6 434.3L761.6 434.3Q763.3 434.3 764.8 434.9Q766.3 435.4 767.4 436.5Q768.5 437.6 769.1 439.3Q769.8 441.0 769.8 443.2L769.8 443.2L769.8 444.5L755.0 444.5L755.0 441.5L765.2 441.5Q765.2 440.5 764.8 439.7Q764.3 438.9 763.5 438.4Q762.7 437.9 761.6 437.9L761.6 437.9Q760.5 437.9 759.7 438.4Q758.8 438.9 758.4 439.8Q757.9 440.6 757.9 441.7L757.9 441.7L757.9 444.5Q757.9 445.8 758.4 446.8Q758.8 447.7 759.7 448.2Q760.6 448.7 761.8 448.7L761.8 448.7Q762.6 448.7 763.3 448.5Q764.0 448.3 764.5 447.8Q764.9 447.4 765.2 446.7L765.2 446.7L769.7 447Q769.3 448.6 768.3 449.8Q767.2 451.0 765.6 451.7Q763.9 452.3 761.8 452.3Z "/></svg>